<svg xmlns="http://www.w3.org/2000/svg" width="128" height="128" viewBox="0 0 25 25"><path fill-rule="evenodd" d="M12.5.25C5.735.25.25 5.735.25 12.5c0 6.766 5.485 12.25 12.25 12.25 6.766 0 12.25-5.484 12.25-12.25C24.75 5.735 19.266.25 12.5.25ZM9.75 12.653c1.506-.4 2.5-1.98 2.5-3.653V6a.75.75 0 0 0-1.5 0v3c0 .964-.444 1.68-1 2.024V6a.75.75 0 0 0-1.5 0v5.024c-.556-.343-1-1.06-1-2.024V6a.75.75 0 0 0-1.5 0v3c0 1.673.994 3.253 2.5 3.653V20a.75.75 0 0 0 1.5 0v-7.347Zm8.788-1.616c-.314.472-.753.876-1.288 1.077V20a.75.75 0 0 1-1.5 0v-7.886c-.535-.201-.974-.605-1.288-1.077-.455-.682-.712-1.581-.712-2.537s.257-1.855.712-2.537c.451-.677 1.157-1.213 2.038-1.213.881 0 1.587.536 2.038 1.213.455.682.712 1.581.712 2.537s-.257 1.855-.712 2.537Z"/></svg>