<svg xmlns="http://www.w3.org/2000/svg" xml:space="preserve" width="128" height="128" viewBox="0 0 24 24"><path d="M22.25 4h-2.99l-.57 2H22v11H2V6h2.41l-.32-1.27C4.03 4.49 4 4.25 4 4H1.75C.79 4 0 4.79 0 5.75v13.5C0 20.21.79 21 1.75 21h7.658c-.118.501-.429 1.314-1.262 2.146A.499.499 0 0 0 8.5 24h7a.5.5 0 0 0 .354-.854c-.831-.831-1.151-1.644-1.275-2.146h7.671c.96 0 1.75-.79 1.75-1.75V5.75C24 4.79 23.21 4 22.25 4z"/><path d="M15 9H8a1 1 0 0 1-.97-.757l-1-4A1.003 1.003 0 0 1 7 3h8.389l.65-2.275a1 1 0 0 1 1.923.549l-2 7c-.123.43-.516.726-.962.726z"/><circle cx="10" cy="11" r="1"/><circle cx="14" cy="11" r="1"/></svg>